{"title":"Dawn of the Planet of the Apes (2014) WEB-DL HC Subs fiveofseven","uid":11376809,"size":1948205431,"categoryP":"video","categoryS":"movies","magnet":"?xt=urn:btih:0eabc1ed5efe54118237b1c584130a82f733430d&amp;dn=Dawn+of+the+Planet+of+the+Apes+%282014%29+WEB-DL+HC+Subs+fiveofseven&amp;tr=udp%3A%2F%2Ftracker.openbittorrent.com%3A80&amp;tr=udp%3A%2F%2Fopen.demonii.com%3A1337&amp;tr=udp%3A%2F%2Ftracker.coppersurfer.tk%3A6969&amp;tr=udp%3A%2F%2Fexodus.desync.com%3A6969","seeders":1,"leechers":0,"uploader":"fiveofseven","files":-1,"time":1415158476,"description":"Sign Language Subtitles Hardcoded\n\n\nPLOT - Ten years after a pandemic disease,\napes who have survived it are drawn into battle\nwith a group of human survivors.\n\n\nThis is really a 1st draft for a 720p I'm doing.\nA few sub errors (HC when not needed, not too much)\nBut I thought &quot;It came out good enough&quot; so sharing it.\n\n\nAAC 2.0 &amp; AC3 5.1 Audio\n\n\nSource - RARBG\n\nGeneral\nComplete name                            : C:uTorrentDawn of the Planet of the Apes (2014 fiveofseven zombiRG) HC sign languageDawn of the Planet of the Apes 2014 fiveofseven zombiRG HC sign language.mp4\nFormat                                   : MPEG-4\nFormat profile                           : Base Media\nCodec ID                                 : isom\nFile size                                : 1.81 GiB\nDuration                                 : 2h 10mn\nOverall bit rate mode                    : Variable\nOverall bit rate                         : 1 983 Kbps\nEncoded date                             : UTC 2014-11-04 13:46:52\nTagged date                              : UTC 2014-11-04 13:46:52\nWriting application                      : My MP4Box GUI 0.6.0.6 &lt;http://my-mp4box-gui.zymichost.com&gt;\n\nVideo\nID                                       : 1\nFormat                                   : AVC\nFormat/Info                              : Advanced Video Codec\nFormat profile                           : &lt;a class=&quot;__cf_email__&quot; href=&quot;/cdn-cgi/l/email-protection&quot; data-cfemail=&quot;a6eecfc1cee6ea958896&quot;&gt;[email&amp;#160;protected]&lt;/a&gt;&lt;script cf-hash='f9e31' type=&quot;text/javascript&quot;&gt;\n/* &lt;![CDATA[ */!function(){try{var t=&quot;currentScript&quot;in document?document.currentScript:function(){for(var t=document.getElementsByTagName(&quot;script&quot;),e=t.length;e--;)if(t[e].getAttribute(&quot;cf-hash&quot;))return t[e]}();if(t&amp;&amp;t.previousSibling){var e,r,n,i,c=t.previousSibling,a=c.getAttribute(&quot;data-cfemail&quot;);if(a){for(e=&quot;&quot;,r=parseInt(a.substr(0,2),16),n=2;a.length-n;n+=2)i=parseInt(a.substr(n,2),16)^r,e+=String.fromCharCode(i);e=document.createTextNode(e),c.parentNode.replaceChild(e,c)}}}catch(u){}}();/* ]]&gt; */&lt;/script&gt;\nFormat settings, CABAC                   : Yes\nFormat settings, ReFrames                : 4 frames\nCodec ID                                 : avc1\nCodec ID/Info                            : Advanced Video Coding\nDuration                                 : 2h 10mn\nBit rate                                 : 1 532 Kbps\nMaximum bit rate                         : 6 833 Kbps\nWidth                                    : 720 pixels\nHeight                                   : 384 pixels\nDisplay aspect ratio                     : 1.85:1\nFrame rate mode                          : Constant\nFrame rate                               : 23.976 fps\nColor space                              : YUV\nChroma subsampling                       : 4:2:0\nBit depth                                : 8 bits\nScan type                                : Progressive\nBits/(Pixel*Frame)                       : 0.231\nStream size                              : 1.40 GiB (77%)\nTitle                                    : 480p POA.mp4\nWriting library                          : x264 core 133 r2334 a3ac64b\nEncoding settings                        : cabac=1 / ref=3 / deblock=1:0:0 / analyse=0x3:0x113 / me=hex / subme=7 / psy=1 / psy_rd=1.00:0.00 / mixed_ref=1 / me_range=16 / chroma_me=1 / trellis=1 / 8x8dct=1 / cqm=0 / deadzone=21,11 / fast_pskip=1 / chroma_qp_offset=-2 / threads=3 / lookahead_threads=1 / sliced_threads=0 / nr=0 / decimate=1 / interlaced=0 / bluray_compat=0 / constrained_intra=0 / bframes=3 / b_pyramid=2 / b_adapt=1 / b_bias=0 / direct=1 / weightb=1 / open_gop=0 / weightp=2 / keyint=240 / keyint_min=23 / scenecut=40 / intra_refresh=0 / rc_lookahead=40 / rc=2pass / mbtree=1 / bitrate=1532 / ratetol=1.0 / qcomp=0.60 / qpmin=0 / qpmax=69 / qpstep=4 / cplxblur=20.0 / qblur=0.5 / ip_ratio=1.40 / aq=1:1.00\nLanguage                                 : English\nEncoded date                             : UTC 2014-11-04 06:18:34\nTagged date                              : UTC 2014-11-04 13:48:34\n\nAudio #1\nID                                       : 2\nFormat                                   : AAC\nFormat/Info                              : Advanced Audio Codec\nFormat profile                           : LC\nCodec ID                                 : 40\nDuration                                 : 2h 10mn\nBit rate mode                            : Variable\nBit rate                                 : 128 Kbps\nMaximum bit rate                         : 138 Kbps\nChannel count                            : 2 channels\nChannel positions                        : Front: L R\nSampling rate                            : 48.0 KHz\nCompression mode                         : Lossy\nDelay relative to video                  : 83ms\nStream size                              : 119 MiB (6%)\nTitle                                    : aac 2.0.mp4\nLanguage                                 : English\nEncoded date                             : UTC 2014-11-04 13:47:58\nTagged date                              : UTC 2014-11-04 13:48:34\n\nAudio #2\nID                                       : 3\nFormat                                   : AC-3\nFormat/Info                              : Audio Coding 3\nMode extension                           : CM (complete main)\nFormat settings, Endianness              : Big\nCodec ID                                 : ac-3\nDuration                                 : 2h 10mn\nBit rate mode                            : Constant\nBit rate                                 : 320 Kbps\nChannel count                            : 6 channels\nChannel positions                        : Front: L C R, Side: L R, LFE\nSampling rate                            : 48.0 KHz\nBit depth                                : 16 bits\nCompression mode                         : Lossy\nDelay relative to video                  : 83ms\nStream size                              : 299 MiB (16%)\nTitle                                    : ac3 5.1.ac3\nLanguage                                 : English\nEncoded date                             : UTC 2014-11-04 13:48:07\nTagged date                              : UTC 2014-11-04 13:48:34\n\nScreenshots - \n  &lt;a href=&quot;\nhttp://image.bayimg.com/169a320460ab9f853d166d4d2750dbb71088f54d.jpg&quot; rel=&quot;nofollow&quot; target=&quot;_NEW&quot;&gt;\nhttp://image.bayimg.com/169a320460ab9f853d166d4d2750dbb71088f54d.jpg&lt;/a&gt; \n  &lt;a href=&quot;\nhttp://image.bayimg.com/456b122339037e24d6b04eb740239c5cbdb77081.jpg&quot; rel=&quot;nofollow&quot; target=&quot;_NEW&quot;&gt;\nhttp://image.bayimg.com/456b122339037e24d6b04eb740239c5cbdb77081.jpg&lt;/a&gt; \n  &lt;a href=&quot;\nhttp://image.bayimg.com/395877332cdd6e14fa7e729dd25d270a44acd20e.jpg&quot; rel=&quot;nofollow&quot; target=&quot;_NEW&quot;&gt;\nhttp://image.bayimg.com/395877332cdd6e14fa7e729dd25d270a44acd20e.jpg&lt;/a&gt; \n  &lt;a href=&quot;\nhttp://image.bayimg.com/701109021791b45eb0338aee804d220459893046.jpg&quot; rel=&quot;nofollow&quot; target=&quot;_NEW&quot;&gt;\nhttp://image.bayimg.com/701109021791b45eb0338aee804d220459893046.jpg&lt;/a&gt; \n \nsignature \n  &lt;a href=&quot;\nhttp://image.bayimg.com/c8522bcf3521d834bcfb712accfc58a8c9f6d9fb.jpg&quot; rel=&quot;nofollow&quot; target=&quot;_NEW&quot;&gt;\nhttp://image.bayimg.com/c8522bcf3521d834bcfb712accfc58a8c9f6d9fb.jpg&lt;/a&gt;","torrent":{"xt":"urn:btih:0eabc1ed5efe54118237b1c584130a82f733430d","amp;dn":"Dawn+of+the+Planet+of+the+Apes+%282014%29+WEB-DL+HC+Subs+fiveofseven","amp;tr":["udp%3A%2F%2Ftracker.openbittorrent.com%3A80","udp%3A%2F%2Fopen.demonii.com%3A1337","udp%3A%2F%2Ftracker.coppersurfer.tk%3A6969","udp%3A%2F%2Fexodus.desync.com%3A6969"],"infoHash":"0eabc1ed5efe54118237b1c584130a82f733430d","infoHashBuffer":{"type":"Buffer","data":[14,171,193,237,94,254,84,17,130,55,177,197,132,19,10,130,247,51,67,13]},"announce":[],"urlList":[]}}